<svg xmlns="http://www.w3.org/2000/svg" viewBox="0 0 142.72 168.67"><defs><style>.cls-1,.cls-2{fill:#fff;}.cls-2{stroke:#fff;stroke-linecap:round;stroke-linejoin:round;stroke-width:7px;}</style></defs><title>Asset 3</title><g id="Layer_2" data-name="Layer 2"><g id="Layer_1-2" data-name="Layer 1"><path class="cls-1" d="M71.63,68.65a6.57,6.57,0,1,1,6.57-6.57A6.57,6.57,0,0,1,71.63,68.65Z"/><path class="cls-1" d="M71.63,58.67a3.42,3.42,0,1,1-3.42,3.41,3.42,3.42,0,0,1,3.42-3.41m0-6.3a9.72,9.72,0,1,0,9.72,9.71,9.72,9.72,0,0,0-9.72-9.71Z"/><path class="cls-1" d="M133,66.49a6.57,6.57,0,1,1,6.57-6.57A6.58,6.58,0,0,1,133,66.49Z"/><path class="cls-1" d="M133,56.5a3.42,3.42,0,1,1-3.42,3.42A3.42,3.42,0,0,1,133,56.5m0-6.3a9.72,9.72,0,1,0,9.72,9.72A9.72,9.72,0,0,0,133,50.2Z"/><path class="cls-1" d="M9.72,66.49a6.57,6.57,0,1,1,6.57-6.57A6.58,6.58,0,0,1,9.72,66.49Z"/><path class="cls-1" d="M9.72,56.5A3.42,3.42,0,1,1,6.3,59.92,3.42,3.42,0,0,1,9.72,56.5m0-6.3a9.72,9.72,0,1,0,9.72,9.72A9.72,9.72,0,0,0,9.72,50.2Z"/><path class="cls-1" d="M9.72,127.78a6.57,6.57,0,1,1,6.57-6.57A6.57,6.57,0,0,1,9.72,127.78Z"/><path class="cls-1" d="M9.72,117.8a3.42,3.42,0,1,1-3.42,3.41,3.42,3.42,0,0,1,3.42-3.41m0-6.3a9.72,9.72,0,1,0,9.72,9.71,9.72,9.72,0,0,0-9.72-9.71Z"/><circle class="cls-1" cx="133" cy="121.21" r="6.57"/><path class="cls-1" d="M133,117.8a3.42,3.42,0,1,1-3.42,3.41A3.42,3.42,0,0,1,133,117.8m0-6.3a9.72,9.72,0,1,0,9.72,9.71A9.72,9.72,0,0,0,133,111.5Z"/><path class="cls-1" d="M71.63,165.52A6.57,6.57,0,1,1,78.2,159,6.57,6.57,0,0,1,71.63,165.52Z"/><path class="cls-1" d="M71.63,155.53A3.42,3.42,0,1,1,68.21,159a3.42,3.42,0,0,1,3.42-3.42m0-6.3A9.72,9.72,0,1,0,81.35,159a9.72,9.72,0,0,0-9.72-9.72Z"/><line class="cls-2" x1="9.72" y1="112.34" x2="9.72" y2="67.04"/><line class="cls-2" x1="64.33" y1="155.24" x2="16.88" y2="125.59"/><line class="cls-2" x1="133.54" y1="114.14" x2="133.54" y2="69.36"/><path class="cls-1" d="M99,35.26a6.57,6.57,0,1,1,6.57-6.57A6.57,6.57,0,0,1,99,35.26Z"/><path class="cls-1" d="M99,25.27a3.42,3.42,0,1,1-3.42,3.42A3.43,3.43,0,0,1,99,25.27M99,19a9.72,9.72,0,1,0,9.72,9.72A9.72,9.72,0,0,0,99,19Z"/><line class="cls-2" x1="99.58" y1="101.33" x2="99.58" y2="35.64"/><path class="cls-1" d="M40.68,16.29a6.57,6.57,0,1,1,6.56-6.57A6.57,6.57,0,0,1,40.68,16.29Z"/><path class="cls-1" d="M40.68,6.3a3.42,3.42,0,1,1-3.42,3.42A3.42,3.42,0,0,1,40.68,6.3m0-6.3A9.72,9.72,0,1,0,50.4,9.72,9.72,9.72,0,0,0,40.68,0Z"/><line class="cls-2" x1="41.22" y1="101.8" x2="41.22" y2="17.4"/><line class="cls-2" x1="78.72" y1="155.38" x2="125.11" y2="126.38"/><line class="cls-2" x1="71.63" y1="70.45" x2="71.63" y2="151.29"/><line class="cls-2" x1="71.31" y1="83.97" x2="15.66" y2="118.75"/><line class="cls-2" x1="125.88" y1="117.79" x2="72.19" y2="84.12"/></g></g></svg>