<svg xmlns="http://www.w3.org/2000/svg" viewBox="0 0 142.72 181.16"><defs><style>.cls-1{fill:none;stroke:#1abc9c;stroke-linecap:round;stroke-linejoin:round;stroke-width:7px;}.cls-2{fill:#1abc9c;}</style></defs><title>Asset 3</title><g id="Layer_2" data-name="Layer 2"><g id="Layer_1-2" data-name="Layer 1"><line class="cls-1" x1="9.72" y1="124.83" x2="9.72" y2="85.84"/><line class="cls-1" x1="64.33" y1="167.73" x2="16.88" y2="138.08"/><line class="cls-1" x1="133.54" y1="126.63" x2="133.54" y2="81.85"/><line class="cls-1" x1="99.58" y1="113.82" x2="99.58" y2="48.13"/><path class="cls-2" d="M71.63,71.15a3.42,3.42,0,1,1-3.42,3.42,3.42,3.42,0,0,1,3.42-3.42m0-6.3a9.72,9.72,0,1,0,9.72,9.72,9.72,9.72,0,0,0-9.72-9.72Z"/><path class="cls-2" d="M133,69a3.42,3.42,0,1,1-3.42,3.42A3.42,3.42,0,0,1,133,69m0-6.3a9.72,9.72,0,1,0,9.72,9.72A9.72,9.72,0,0,0,133,62.69Z"/><path class="cls-2" d="M9.72,75.29A3.42,3.42,0,1,1,6.3,78.71a3.43,3.43,0,0,1,3.42-3.42m0-6.3a9.72,9.72,0,1,0,9.72,9.72A9.72,9.72,0,0,0,9.72,69Z"/><path class="cls-2" d="M9.72,130.28A3.42,3.42,0,1,1,6.3,133.7a3.43,3.43,0,0,1,3.42-3.42m0-6.3a9.72,9.72,0,1,0,9.72,9.72A9.72,9.72,0,0,0,9.72,124Z"/><path class="cls-2" d="M133,130.28a3.42,3.42,0,1,1-3.42,3.42,3.42,3.42,0,0,1,3.42-3.42m0-6.3a9.72,9.72,0,1,0,9.72,9.72A9.73,9.73,0,0,0,133,124Z"/><path class="cls-2" d="M71.63,168a3.42,3.42,0,1,1-3.42,3.42A3.42,3.42,0,0,1,71.63,168m0-6.3a9.72,9.72,0,1,0,9.72,9.72,9.72,9.72,0,0,0-9.72-9.72Z"/><path class="cls-2" d="M99,37.76a3.42,3.42,0,1,1-3.42,3.42A3.43,3.43,0,0,1,99,37.76m0-6.3a9.72,9.72,0,1,0,9.72,9.72A9.72,9.72,0,0,0,99,31.46Z"/><path class="cls-2" d="M40.68,6.3a3.42,3.42,0,1,1-3.42,3.42A3.42,3.42,0,0,1,40.68,6.3m0-6.3a9.72,9.72,0,1,0,9.71,9.72A9.72,9.72,0,0,0,40.68,0Z"/><line class="cls-1" x1="41.21" y1="114.29" x2="41.21" y2="17.4"/><line class="cls-1" x1="78.72" y1="167.86" x2="125.11" y2="138.87"/><line class="cls-1" x1="71.63" y1="82.94" x2="71.63" y2="163.78"/><line class="cls-1" x1="71.31" y1="96.46" x2="15.66" y2="131.24"/><line class="cls-1" x1="125.88" y1="130.27" x2="72.19" y2="96.61"/></g></g></svg>